<?xml version="1.0" encoding="utf-8"?>
<!-- Generator: Adobe Illustrator 22.1.0, SVG Export Plug-In . SVG Version: 6.00 Build 0)  -->
<svg version="1.1" id="_x2014_ŽÓť_x5F_1" xmlns="http://www.w3.org/2000/svg" xmlns:xlink="http://www.w3.org/1999/xlink"
	 x="0px" y="0px" viewBox="0 0 1082 500" style="enable-background:new 0 0 1082 500;" xml:space="preserve">
<style type="text/css">
	.st0{fill:#E4011C;}
	.st1{filter:url(#Adobe_OpacityMaskFilter);}
	.st2{fill:#FFFFFF;}
	.st3{opacity:0.28;mask:url(#SVGID_1_);}
	.st4{fill:#70C836;}
	.st5{filter:url(#Adobe_OpacityMaskFilter_1_);}
	.st6{opacity:0.28;mask:url(#SVGID_2_);}
</style>
<g>
	<g>
		<circle class="st0" cx="392.4" cy="211.9" r="133.4"/>
		<defs>
			<filter id="Adobe_OpacityMaskFilter" filterUnits="userSpaceOnUse" x="259.1" y="78.6" width="266.7" height="266.7">
				<feColorMatrix  type="matrix" values="1 0 0 0 0  0 1 0 0 0  0 0 1 0 0  0 0 0 1 0"/>
			</filter>
		</defs>
		<mask maskUnits="userSpaceOnUse" x="259.1" y="78.6" width="266.7" height="266.7" id="SVGID_1_">
			<g class="st1">
				<polygon class="st2" points="460.4,144 324.7,280.2 393.8,349.3 519.8,339.6 529.7,213.2 				"/>
			</g>
		</mask>
		<circle class="st3" cx="392.4" cy="211.9" r="133.4"/>
		<path class="st2" d="M421.3,211.9l39.3-39.3c7.8-7.8,7.8-20.6,0-28.4l-0.5-0.5c-7.8-7.8-20.6-7.8-28.4,0L392.4,183l-39.3-39.3
			c-7.8-7.8-20.6-7.8-28.5,0l-0.5,0.5c-7.8,7.8-7.8,20.6,0,28.4l39.3,39.3l-39.3,39.3c-7.8,7.8-7.8,20.6,0,28.4l0.5,0.5
			c7.8,7.8,20.6,7.8,28.5,0l39.3-39.3l39.3,39.3c7.8,7.8,20.6,7.8,28.4,0l0.5-0.5c7.8-7.8,7.8-20.6,0-28.4L421.3,211.9z"/>
	</g>
	<g>
		<circle class="st4" cx="689.6" cy="211.9" r="133.4"/>
		<defs>
			<filter id="Adobe_OpacityMaskFilter_1_" filterUnits="userSpaceOnUse" x="556.2" y="78.6" width="266.7" height="266.7">
				<feColorMatrix  type="matrix" values="1 0 0 0 0  0 1 0 0 0  0 0 1 0 0  0 0 0 1 0"/>
			</filter>
		</defs>
		<mask maskUnits="userSpaceOnUse" x="556.2" y="78.6" width="266.7" height="266.7" id="SVGID_2_">
			<g class="st5">
				<polygon class="st2" points="781.7,143.7 645.9,280 717,351 817.4,340.8 829.1,191.1 				"/>
			</g>
		</mask>
		<circle class="st6" cx="689.6" cy="211.9" r="133.4"/>
		<path class="st2" d="M782.2,144.2l-0.5-0.5c-7.8-7.8-20.6-7.8-28.4,0l-92.8,92.8L625.9,202c-7.8-7.8-20.6-7.8-28.4,0l-0.5,0.5
			c-7.8,7.8-7.8,20.6,0,28.4l49.2,49.2c7.8,7.8,20.6,7.8,28.5,0l107.5-107.5C790,164.8,790,152,782.2,144.2z"/>
	</g>
</g>
</svg>
