<?xml version="1.0" encoding="utf-8"?>
<!-- Generator: Adobe Illustrator 22.1.0, SVG Export Plug-In . SVG Version: 6.00 Build 0)  -->
<svg version="1.1" id="Capa_1" xmlns="http://www.w3.org/2000/svg" xmlns:xlink="http://www.w3.org/1999/xlink" x="0px" y="0px"
	 viewBox="0 0 512 512" style="enable-background:new 0 0 512 512;" xml:space="preserve">
<style type="text/css">
	.st0{fill:#2863B4;}
</style>
<g>
	<g>
		<path class="st0" d="M395.7,365.8l-31.6-14.2c34.9-30.3,57-74.9,57-124.6v-62c0-91-74-165-165-165S91.3,73.9,91.3,164.9v62
			c0,24.8,20,45,44.8,45h25.1c5,10.6,12,20.1,20.1,28.4c0,9,0,25.4,0,36.2l-65,29.2c-23.7,8.3-37.4,33.6-31.5,58l14.8,76
			c1.4,7,7.5,12.1,14.7,12.1h201.8h60h21.6c7.2,0,13.3-5.1,14.7-12.1l14.8-76C433.1,399.4,419.4,374.1,395.7,365.8z M333.3,337.6
			l-2.2-1c0-10.8,0-27.3,0-36.3c8.1-8.3,14.8-17.8,19.9-28.4h25.1c2.6,0,5.1-0.2,7.5-0.6C374.2,298.3,356.4,321.5,333.3,337.6z
			 M391.3,164.9v62c0,8.3-6.9,15-15.2,15h-15c0-7.5,0-69.1,0-77v-15h15C384.4,149.9,391.3,156.6,391.3,164.9z M151.3,241.9h-15.2
			c-8.3,0-15-6.7-15-15v-62c0-8.3,6.7-15.2,15-15.2h15.2C150.9,178.4,151.3,202.9,151.3,241.9z M161.3,120.1
			c-27.5,0-27.8-0.4-32.6,0.4c18.3-52.7,68.5-90.6,127.4-90.6s109.1,37.9,127.5,90.6c-4.9-0.8-5.2-0.4-32.6-0.4
			c-17.1-35.9-53.6-60.2-94.9-60.2C214.3,59.9,178.1,84.7,161.3,120.1z M316.1,119.9c-14.1,18.7-36.3,30-60,30h-73.5
			c7-34.2,37.3-60,73.5-60C280.6,89.9,302.4,101.7,316.1,119.9z M181.1,226.9v-47h75c27.7,0,54.1-11.1,73.5-30c1,4.9,1.7,9.9,1.7,15
			v62c0,41.4-33.8,75-75.2,75S181.1,268.3,181.1,226.9z M398,416.9c-0.1,0.3-0.1,0.5-0.2,0.8l-12.5,64.2h-9.2h-60H126.7l-12.5-64.2
			c-0.1-0.3-0.1-0.5-0.2-0.8c-2.4-9.7,3.1-19.8,12.6-23c1.1-0.4-3.7,1.8,75.7-34.1c5.4-2.4,8.8-7.8,8.8-13.7c0-2.8,0-13.5,0-24.5
			c13.6,6.5,28.9,10.1,45,10.1s31.6-3.6,45.2-10.1c0,11.1,0,22,0,24.6s0.5,5,1.6,7.2c-14.6,5.4-30.4,8.4-46.8,8.4
			c-8.3,0-15,6.7-15,15s6.7,15,15,15c28.8,0,55.8-7.4,79.4-20.4c52.5,23.7,48.9,22.1,49.9,22.4C394.9,397.1,400.5,407.2,398,416.9z"
			/>
	</g>
</g>
</svg>
