<?xml version="1.0" encoding="utf-8"?>
<!-- Generator: Adobe Illustrator 22.1.0, SVG Export Plug-In . SVG Version: 6.00 Build 0)  -->
<svg version="1.1" id="Capa_1" xmlns="http://www.w3.org/2000/svg" xmlns:xlink="http://www.w3.org/1999/xlink" x="0px" y="0px"
	 viewBox="0 0 58 60" style="enable-background:new 0 0 58 60;" xml:space="preserve">
<style type="text/css">
	.st0{fill:#2863B4;}
</style>
<g>
	<path class="st0" d="M34,36v24h24V36H34z M56,58H36V38h9v12.6l-4.3-4.3l-1.4,1.4l6.7,6.7l6.7-6.7l-1.4-1.4L47,50.6V38h9V58z"/>
	<path class="st0" d="M47,14.6L32.4,0H0v60h31V48H11c-0.6,0-1-0.4-1-1s0.4-1,1-1h20v-6H11c-0.6,0-1-0.4-1-1s0.4-1,1-1h20v-5h16V14.6
		z M11,14h10c0.6,0,1,0.4,1,1s-0.4,1-1,1H11c-0.6,0-1-0.4-1-1S10.4,14,11,14z M36,32H11c-0.6,0-1-0.4-1-1s0.4-1,1-1h25
		c0.6,0,1,0.4,1,1S36.6,32,36,32z M36,24H11c-0.6,0-1-0.4-1-1s0.4-1,1-1h25c0.6,0,1,0.4,1,1S36.6,24,36,24z M31,16V2l14,14H31z"/>
</g>
</svg>
