<?xml version="1.0" encoding="utf-8"?>
<!-- Generator: Adobe Illustrator 22.1.0, SVG Export Plug-In . SVG Version: 6.00 Build 0)  -->
<svg version="1.1" id="Warstwa_1" xmlns="http://www.w3.org/2000/svg" xmlns:xlink="http://www.w3.org/1999/xlink" x="0px" y="0px"
	 viewBox="0 0 929 146" style="enable-background:new 0 0 929 146;" xml:space="preserve">
<style type="text/css">
	.st0{fill:#E9E9EA;}
</style>
<g>
	<g>
		<path class="st0" d="M28.1,120.5H10L53,26h17.8l42.9,94.5H95.7l-10.9-24H38.6L28.1,120.5z M80.3,84.3L61.8,41.5L43.6,84.3H80.3z"
			/>
		<path class="st0" d="M137.1,90.4V91c0,5.4,1.2,11.2,7.8,15.1c5.3,3.1,14.6,3.9,19.8,3.9c4.7,0,13.4-0.5,18.1-2.8
			c5.8-2.8,8.1-8.1,8.1-13.1c0-4.9-2.3-8-6.6-10.3c-2.4-1.2-6.2-2.6-15.7-4.3l-12.8-2.3c-10.1-1.8-22.4-3.2-29.4-10
			c-4.6-4.5-5.9-9.9-5.9-15.3c0-7.7,2.7-16.3,12.6-22.5c8.1-5,18.5-6.3,28.6-6.3c20.4,0,29,4.9,30.9,5.9c6.7,4,12.6,10.9,12.8,22.3
			h-17.5c-0.1-5.4-2.3-9-8-11.9c-2.6-1.2-7.7-3.2-18-3.2c-6.1,0-11.7,0.7-16.7,3.4c-4.9,2.6-7.2,6.1-7.2,10.8c0,5.5,3,8.4,7.7,10.3
			c4.6,1.9,10,2.6,19.2,4.2l11.3,2c9,1.6,17.5,3.2,23.8,8c6.6,5.1,8.8,11.6,8.8,18.9c0,13.5-6.9,20.8-13.4,24.3
			c-4.5,2.4-12,5-28.6,5c-8.1,0-20.7-0.4-28.8-3.2c-16.9-5.9-18.8-20.2-18.8-28.8v-0.5H137.1z"/>
	</g>
	<g>
		<path class="st0" d="M328.1,13.9c7.3,0,19.7,0,28.8,6.9c8.2,6.3,10,14.7,10,22.4c0,6.2-0.9,14.4-7,20.7
			c-8.1,8.4-22.4,8.8-33.3,8.8h-27.8v35.8H282V13.9H328.1z M298.7,59.7h25.9c8.6,0,13.8-0.8,17.4-3c3.5-2.2,7-6.3,7-13.9
			c0-7.7-3.9-11.2-6.2-12.7c-2.7-1.8-7.6-3.2-18.1-3.2h-26.1V59.7z"/>
		<path class="st0" d="M450.9,108.4h-15.7V50.7h-32.1v57.8h-15.7V50.7H373V39.9h14.4v-5.5c0-3.8,0.1-10.3,5.1-15.1
			c5.1-5,12.8-5.4,19.3-5.4c3.8,0,6.6,0,10.5,0.5v10.4c-1.2-0.1-3.6-0.4-6.5-0.4c-2.3,0-6.3,0.1-9,2.3c-3.4,2.7-3.6,7-3.6,8.8v4.5
			h32V13.9h15.7V108.4z"/>
		<path class="st0" d="M545.9,87.5c-1.1,10.5-7.7,17.8-16.3,20.9c-5.5,2-12.4,2.6-22,2.6c-10.8,0-23.2-0.9-31.9-9.6
			c-3.4-3.4-9.3-11.2-9.3-26.3c0-13.8,4.7-22.5,9.9-27.7c8.8-8.8,20.7-10.1,30.5-10.1c9.7,0,22.8,1.5,31.3,10.3
			c8,8.2,8.9,18.8,8.9,27.8v2h-64.1v0.8c0,4.5,0.7,11.2,5.5,16.3c5.3,5.5,12.6,5.9,19,5.9c5.4,0,10.9-0.3,15.4-2.7
			c5.3-3,6.5-7.2,6.9-10.3H545.9z M530.5,68.2c-0.1-6.3-2.8-12.3-6.5-15.4c-5.5-4.7-14.3-5-17.3-5c-4.3,0-11.5,0.7-16.9,5.4
			c-3.4,3-6.5,8.2-6.9,15H530.5z"/>
		<path class="st0" d="M580.6,114.6c0.3,2.6,1.2,5.7,5.3,7.7c2.4,1.2,5.7,1.8,12.6,1.8c5,0,11.9-0.4,16.3-4.2
			c5-4.3,5.5-11.1,5.5-16.6v-5.9c-2.2,3.4-5.1,6.1-9.6,8.1c-5.4,2.4-11.2,2.7-16.2,2.7c-8.1,0-17.7-0.7-25.6-8.1
			c-8.4-7.7-9.7-17.8-9.7-25.8c0-9.2,1.9-19.6,9.7-27.4c8.1-8.1,18.5-9.4,26.6-9.4c5.1,0,10.5,0.5,15.8,3c4.5,2,7.3,4.7,9.3,8.8h0.4
			v-9.3h15v62c0,8.6-0.9,17.8-7.8,24.7c-8.1,8.1-20.4,8.1-30.9,8.1c-9.3,0-19.6-0.4-26.5-6.1c-3.4-2.8-6.5-7.2-6.8-13.9H580.6z
			 M614.3,92c4.7-4.7,6.6-12.6,6.6-19.2c0-8.9-2.8-14.8-6.1-18.5c-5-5.5-10.9-6.3-16.1-6.3c-5.8,0-11.6,1.2-16.5,6.2
			c-3.2,3.4-6.7,9-6.7,18.9c0,9.7,3,15.4,6.1,18.6c5,5.1,11.3,5.9,16.3,5.9C603,97.6,609.5,96.8,614.3,92z"/>
		<path class="st0" d="M731,87.5c-1.1,10.5-7.7,17.8-16.3,20.9c-5.5,2-12.4,2.6-22,2.6c-10.8,0-23.2-0.9-31.9-9.6
			c-3.4-3.4-9.3-11.2-9.3-26.3c0-13.8,4.7-22.5,9.9-27.7c8.8-8.8,20.7-10.1,30.5-10.1c9.7,0,22.8,1.5,31.3,10.3
			c8,8.2,8.9,18.8,8.9,27.8v2h-64.1v0.8c0,4.5,0.7,11.2,5.5,16.3c5.3,5.5,12.6,5.9,19,5.9c5.4,0,10.9-0.3,15.4-2.7
			c5.3-3,6.5-7.2,6.9-10.3H731z M715.6,68.2c-0.1-6.3-2.8-12.3-6.5-15.4c-5.5-4.7-14.3-5-17.3-5c-4.3,0-11.5,0.7-16.9,5.4
			c-3.4,3-6.5,8.2-6.9,15H715.6z"/>
		<path class="st0" d="M825.1,108.4h-78.3V108c0-8.4,0.9-18.2,9.9-27.3c5.5-5.7,13-9.7,21.1-13.6l13.9-6.7
			c6.9-3.4,10.1-5.9,11.9-7.7c3.1-3.1,5-6.8,5-11.7c0-5.8-2.2-10-6.6-13.1c-5.1-3.5-11.5-3.8-15.7-3.8c-3.4,0-11.7,0.5-16.7,5.5
			c-3,3-5.1,7.8-5.1,13.6V44h-16.9v-0.8c0-11.5,5-18.9,10.5-23.6c9-7.6,21.2-8.2,29-8.2c14.6,0,22.8,3.2,27.5,6.6
			c5.5,3.9,10.9,10.8,10.9,22c0,9.9-4,15.8-7.8,19.3c-2.6,2.4-6.2,4.7-15.8,10l-11.1,6.1c-5.1,2.8-11.2,5.5-15.8,9.2
			c-4.2,3.4-6.1,6.3-6.9,10.9h57V108.4z"/>
		<path class="st0" d="M832.5,87.1V74.7l52.8-60.7h16.6v60.2H919v13h-17.1v21.3h-16.7V87.1H832.5z M885.2,74.1V30.3L848,74.1H885.2z
			"/>
	</g>
</g>
</svg>
