<?xml version="1.0" encoding="utf-8"?>
<!-- Generator: Adobe Illustrator 22.1.0, SVG Export Plug-In . SVG Version: 6.00 Build 0)  -->
<svg version="1.1" id="Capa_1" xmlns="http://www.w3.org/2000/svg" xmlns:xlink="http://www.w3.org/1999/xlink" x="0px" y="0px"
	 viewBox="0 0 512 512" style="enable-background:new 0 0 512 512;" xml:space="preserve">
<style type="text/css">
	.st0{fill:#2863B4;}
</style>
<g>
	<g>
		<path class="st0" d="M481,197c0-3.9-1.6-7.8-4.4-10.6L421,130.8V15c0-8.3-6.7-15-15-15H106c-8.3,0-15,6.7-15,15v115.8l-55.6,55.6
			c-0.1,0.1-0.1,0.1-0.1,0.2c-2.9,2.9-4.3,6.7-4.3,10.4l0,0v270c0,24.8,20.2,45,45,45h360c24.8,0,45-20.2,45-45V197L481,197z
			 M421,173.2l23.8,23.8L421,220.8V173.2z M121,137L121,137V30h270v107l0,0v113.8L309.8,332H202.2L121,250.8V137z M91,173.2v47.6
			L67.2,197L91,173.2z M61,460.8V233.2L174.8,347L61,460.8z M82.2,482l120-120h107.6l120,120H82.2z M451,460.8L337.2,347L451,233.2
			V460.8z"/>
	</g>
</g>
</svg>
