<?xml version="1.0" encoding="utf-8"?>
<!-- Generator: Adobe Illustrator 22.1.0, SVG Export Plug-In . SVG Version: 6.00 Build 0)  -->
<svg version="1.1" id="Capa_1" xmlns="http://www.w3.org/2000/svg" xmlns:xlink="http://www.w3.org/1999/xlink" x="0px" y="0px"
	 viewBox="0 0 512 512" style="enable-background:new 0 0 512 512;" xml:space="preserve">
<style type="text/css">
	.st0{fill:#2863B4;}
</style>
<g>
	<g>
		<path class="st0" d="M473.9,379.6l-63.4-65.6c-0.1-0.1-0.1-0.1-0.2-0.2c-17.6-17.6-46-17.6-63.6,0l-28.9,28.9
			c-13.3,13.3-34.9,13.3-48.2,0l0,0l-100.7-98.1c-13.3-13.3-13.3-34.9,0-48.2l28.9-28.9c17.5-17.5,17.5-46.1,0-63.6l-63.6-63.6
			c-17.5-17.5-46.1-17.5-63.6,0L49.4,61.6l-1.9,1.9c-63.4,63.4-63.4,166,0,229.5l173.9,171.5c63.3,63.3,165.7,63.5,229.2,0.2
			c0.3-0.3,22.8-21,23.2-21.4C491.3,425.7,491.3,397.2,473.9,379.6z M91.8,61.5c5.8-5.8,15.4-5.8,21.2,0l63.6,63.6
			c5.9,5.9,5.9,15.3,0,21.2L166.1,157L81.2,72.1L91.8,61.5z M242.6,443.1L68.7,271.7c-49-49-51.3-126.3-8.3-178l84.5,84.5
			c-22.1,25.1-21.2,63.6,2.8,87.7L248.3,364c24,24,62.4,25,87.6,2.8l84.5,84.5C368.3,494.8,291.5,492.1,242.6,443.1z M452.7,421.8
			l-10.1,9.3l-85.4-85.4l10.6-10.6c5.8-5.8,15.3-5.9,21.1-0.1c0.1,0.1,63.4,65.6,63.5,65.7C458.3,406.5,458.4,415.9,452.7,421.8z"/>
	</g>
</g>
<g>
	<g>
		<path class="st0" d="M256.9,0c-8.3,0-15,6.7-15,15s6.7,15,15,15c124.1,0,225,100.9,225,225c0,8.3,6.7,15,15,15s15-6.7,15-15
			C511.9,114.1,397.9,0,256.9,0z"/>
	</g>
</g>
<g>
	<g>
		<path class="st0" d="M256.9,60c-8.3,0-15,6.7-15,15s6.7,15,15,15c91,0,165,74,165,165c0,8.3,6.7,15,15,15s15-6.7,15-15
			C451.9,147.5,364.4,60,256.9,60z"/>
	</g>
</g>
<g>
	<g>
		<path class="st0" d="M256.9,120c-8.3,0-15,6.7-15,15s6.7,15,15,15c57.9,0,105,47.1,105,105c0,8.3,6.7,15,15,15s15-6.7,15-15
			C391.9,180.6,331.4,120,256.9,120z"/>
	</g>
</g>
<g>
	<g>
		<path class="st0" d="M256.9,180c-8.3,0-15,6.7-15,15c0,8.3,6.7,15,15,15c24.8,0,45,20.2,45,45c0,8.3,6.7,15,15,15
			c8.3,0,15-6.7,15-15C331.9,213.6,298.3,180,256.9,180z"/>
	</g>
</g>
</svg>
